HIERARCHY
ROOT hip
{
  OFFSET 0 0 0
  CHANNELS 6 Xposition Yposition Zposition Zrotation Yrotation Xrotation
  JOINT abdomen
  {
    OFFSET 0 20.6881 -0.73152
    CHANNELS 3 Zrotation Xrotation Yrotation
    JOINT chest
    {
      OFFSET 0 11.7043 -0.48768
      CHANNELS 3 Zrotation Xrotation Yrotation
      JOINT neck
      {
        OFFSET 0 22.1894 -2.19456
        CHANNELS 3 Zrotation Xrotation Yrotation
        JOINT head
        {
          OFFSET -0.24384 7.07133 1.2192
          CHANNELS 3 Zrotation Xrotation Yrotation
          JOINT leftEye
          {
            OFFSET 4.14528 8.04674 8.04672
            CHANNELS 3 Zrotation Xrotation Yrotation
            End Site
            {
              OFFSET 1 0 0
            }
          }
          JOINT rightEye
          {
            OFFSET -3.6576 8.04674 8.04672
            CHANNELS 3 Zrotation Xrotation Yrotation
            End Site
            {
              OFFSET 1 0 0
            }
          }
        }
      }
      JOINT rCollar
      {
        OFFSET -2.68224 19.2634 -4.8768
        CHANNELS 3 Zrotation Xrotation Yrotation
        JOINT rShldr
        {
          OFFSET -8.77824 -1.95073 1.46304
          CHANNELS 3 Zrotation Xrotation Yrotation
          JOINT rForeArm
          {
            OFFSET -28.1742 -1.7115 0.48768
            CHANNELS 3 Zrotation Xrotation Yrotation
            JOINT rHand
            {
              OFFSET -22.5879 0.773209 7.07136
              CHANNELS 3 Zrotation Xrotation Yrotation
              JOINT rThumb1
              {
                OFFSET -1.2192 -0.487915 3.41376
                CHANNELS 3 Zrotation Xrotation Yrotation
                JOINT rThumb2
                {
                  OFFSET -3.37035 -0.52449 3.41376
                  CHANNELS 3 Zrotation Xrotation Yrotation
                  End Site
                  {
                    OFFSET -1.78271 -1.18214 1.43049
                  }
                }
              }
              JOINT rIndex1
              {
                OFFSET -7.75947 0.938293 5.60832
                CHANNELS 3 Zrotation Xrotation Yrotation
                JOINT rIndex2
                {
                  OFFSET -2.54057 -0.884171 1.56538
                  CHANNELS 3 Zrotation Xrotation Yrotation
                  End Site
                  {
                    OFFSET -1.62519 -0.234802 1.16502
                  }
                }
              }
              JOINT rMid1
              {
                OFFSET -8.24714 1.18213 3.41376
                CHANNELS 3 Zrotation Xrotation Yrotation
                JOINT rMid2
                {
                  OFFSET -3.10165 -0.590103 1.0647
                  CHANNELS 3 Zrotation Xrotation Yrotation
                  End Site
                  {
                    OFFSET -2.48547 -0.328903 0.83742
                  }
                }
              }
              JOINT rRing1
              {
                OFFSET -8.82822 0.546677 1.51678
                CHANNELS 3 Zrotation Xrotation Yrotation
                JOINT rRing2
                {
                  OFFSET -2.60934 -0.819778 -0.0198488
                  CHANNELS 3 Zrotation Xrotation Yrotation
                  End Site
                  {
                    OFFSET -2.33842 -0.294052 0.168128
                  }
                }
              }
              JOINT rPinky1
              {
                OFFSET -8.27202 -0.0477905 -0.4584
                CHANNELS 3 Zrotation Xrotation Yrotation
                JOINT rPinky2
                {
                  OFFSET -1.82734 -0.647385 -0.700984
                  CHANNELS 3 Zrotation Xrotation Yrotation
                  End Site
                  {
                    OFFSET -1.69225 -0.51767 -0.607171
                  }
                }
              }
            }
          }
        }
      }
      JOINT lCollar
      {
        OFFSET 2.68224 19.2634 -4.8768
        CHANNELS 3 Zrotation Xrotation Yrotation
        JOINT lShldr
        {
          OFFSET 8.77824 -1.95073 1.46304
          CHANNELS 3 Zrotation Xrotation Yrotation
          JOINT lForeArm
          {
            OFFSET 28.1742 -1.7115 0.48768
            CHANNELS 3 Zrotation Xrotation Yrotation
            JOINT lHand
            {
              OFFSET 22.5879 0.773209 7.07136
              CHANNELS 3 Zrotation Xrotation Yrotation
              JOINT lThumb1
              {
                OFFSET 1.2192 -0.487915 3.41376
                CHANNELS 3 Zrotation Xrotation Yrotation
                JOINT lThumb2
                {
                  OFFSET 3.37035 -0.52449 3.41376
                  CHANNELS 3 Zrotation Xrotation Yrotation
                  End Site
                  {
                    OFFSET 1.78271 -1.18214 1.43049
                  }
                }
              }
              JOINT lIndex1
              {
                OFFSET 7.75947 0.938293 5.60832
                CHANNELS 3 Zrotation Xrotation Yrotation
                JOINT lIndex2
                {
                  OFFSET 2.54057 -0.884171 1.56538
                  CHANNELS 3 Zrotation Xrotation Yrotation
                  End Site
                  {
                    OFFSET 1.62519 -0.234802 1.16502
                  }
                }
              }
              JOINT lMid1
              {
                OFFSET 8.24714 1.18213 3.41376
                CHANNELS 3 Zrotation Xrotation Yrotation
                JOINT lMid2
                {
                  OFFSET 3.10165 -0.590103 1.0647
                  CHANNELS 3 Zrotation Xrotation Yrotation
                  End Site
                  {
                    OFFSET 2.48547 -0.328903 0.83742
                  }
                }
              }
              JOINT lRing1
              {
                OFFSET 8.82822 0.546677 1.51678
                CHANNELS 3 Zrotation Xrotation Yrotation
                JOINT lRing2
                {
                  OFFSET 2.60934 -0.819778 -0.0198488
                  CHANNELS 3 Zrotation Xrotation Yrotation
                  End Site
                  {
                    OFFSET 2.33842 -0.294052 0.168128
                  }
                }
              }
              JOINT lPinky1
              {
                OFFSET 8.27202 -0.0477905 -0.4584
                CHANNELS 3 Zrotation Xrotation Yrotation
                JOINT lPinky2
                {
                  OFFSET 1.82734 -0.647385 -0.700984
                  CHANNELS 3 Zrotation Xrotation Yrotation
                  End Site
                  {
                    OFFSET 1.69225 -0.51767 -0.607171
                  }
                }
              }
            }
          }
        }
      }
    }
  }
  JOINT rButtock
  {
    OFFSET -8.77824 4.35084 1.2192
    CHANNELS 3 Zrotation Xrotation Yrotation
    JOINT rThigh
    {
      OFFSET 0 -1.70687 -2.19456
      CHANNELS 3 Zrotation Xrotation Yrotation
      JOINT rShin
      {
        OFFSET 0 -36.8199 0.73152
        CHANNELS 3 Zrotation Xrotation Yrotation
        JOINT rFoot
        {
          OFFSET 0.73152 -45.1104 -5.12064
          CHANNELS 3 Zrotation Xrotation Yrotation
          End Site
          {
            OFFSET -1.1221 -3.69964 12.103
          }
        }
      }
    }
  }
  JOINT lButtock
  {
    OFFSET 8.77824 4.35084 1.2192
    CHANNELS 3 Zrotation Xrotation Yrotation
    JOINT lThigh
    {
      OFFSET 0 -1.70687 -2.19456
      CHANNELS 3 Zrotation Xrotation Yrotation
      JOINT lShin
      {
        OFFSET 0 -36.8199 0.73152
        CHANNELS 3 Zrotation Xrotation Yrotation
        JOINT lFoot
        {
          OFFSET -0.73152 -45.1104 -5.12064
          CHANNELS 3 Zrotation Xrotation Yrotation
          End Site
          {
            OFFSET 1.1221 -3.69964 12.103
          }
        }
      }
    }
  }
}
MOTION
Frames:	4
Frame Time:	0.00833333
7.90702 84.3564 5.30477 0.0 0.0 0.0 -1.0646 -0.00451764 -0.029413 -0.29379 -0.00441514 -0.0508972 3.10679e-15 0.0 -1.98785e-16 9.7684e-15 3.18055e-15 -6.35179e-16 -0.0 0.0 0.0 -0.0 0.0 0.0 1.88716e-15 -5.04727e-18 4.96962e-17 3.65595e-14 -5.59082e-17 -1.39149e-15 5.98988e-13 -1.80695e-13 -3.49861e-14 6.88299e-12 1.69414e-13 -4.26194e-13 1.62302e-11 -2.5873e-14 -9.92333e-13 2.80274e-11 -4.77083e-14 -1.71432e-12 1.62347e-11 -2.54444e-14 -9.92333e-13 7.73091 5.47488 0.417314 1.62306e-11 -2.5842e-14 -9.85972e-13 2.90554 0.965183 0.102902 1.62395e-11 -2.5345e-14 -9.92333e-13 10.2786 0.731801 0.0259123 1.6225e-11 -2.22639e-14 -9.82791e-13 2.22167 -0.733487 -0.20892 1.79046e-15 -1.16475e-18 -2.48481e-16 3.30371e-14 2.48481e-17 -2.78299e-15 6.02268e-13 1.7831e-13 -6.36111e-14 6.87475e-12 -1.81068e-13 -3.84847e-13 1.62273e-11 -8.20421e-15 -9.92333e-13 2.80255e-11 -1.90833e-14 -1.71988e-12 1.62224e-11 -6.36111e-15 -9.79611e-13 -7.73091 5.47488 -0.417314 1.62266e-11 -7.7526e-15 -9.89153e-13 -2.90554 0.965183 -0.102902 1.62224e-11 -8.44835e-15 -9.93923e-13 -10.2786 0.731801 -0.0259123 1.62336e-11 -5.96354e-15 -1.00187e-12 -2.22167 -0.733487 0.20892 -2.03217e-16 0.0 -3.88251e-19 -0.324205 -1.91962 -0.0116797 -0.00916989 -2.07857 -0.0756785 -0.482591 3.99672 0.135929 2.03217e-16 0.0 3.88251e-19 -1.29756 -5.62284 0.115042 -0.000519514 4.62938 -0.0312203 0.499755 0.992118 -0.0770748
10.6881 83.2743 2.15881 -62.5546 87.6356 -53.7391 0.0956099 4.04172 -0.411148 -0.55164 -1.03689 -0.104853 -1.22339 8.2457 -0.61131 2.20169 -9.2612 -0.819597 -0.0 0.0 0.0 -0.0 0.0 0.0 -2.90531e-14 8.761e-13 2.2896e-14 19.8133 11.0681 10.3135 2.09061 15.0935 -41.988 0.0895298 6.64598 0.911497 -2.74092e-10 4.22311e-11 -6.80866e-11 -4.75706e-10 7.43678e-11 -1.11605e-10 -2.74089e-10 4.22312e-11 -6.80896e-11 7.73091 5.47488 0.417314 -2.74091e-10 4.22317e-11 -6.80839e-11 2.90554 0.965183 0.102902 -2.74085e-10 4.22322e-11 -6.80876e-11 10.2786 0.731801 0.0259123 -2.74097e-10 4.22358e-11 -6.80791e-11 2.22167 -0.733487 -0.20892 -2.91081e-14 8.76103e-13 2.25943e-14 -19.3448 14.3036 -13.933 -0.94228 16.2403 40.8886 -0.0827291 -6.38762 0.877699 -1.34057e-10 2.27622e-10 -2.61403e-10 -2.2679e-10 3.94611e-10 -4.55374e-10 -1.34062e-10 2.27623e-10 -2.61392e-10 -7.73091 5.47488 -0.417314 -1.34057e-10 2.27622e-10 -2.614e-10 -2.90554 0.965183 -0.102902 -1.34063e-10 2.27622e-10 -2.61402e-10 -10.2786 0.731801 -0.0259123 -1.34051e-10 2.27624e-10 -2.61409e-10 -2.22167 -0.733487 0.20892 -2.03217e-16 0.0 -3.88251e-19 0.0461705 -6.15811 0.535505 -0.00772657 1.54789 -0.0174872 -0.553325 1.48019 -1.78794 2.03217e-16 0.0 3.88251e-19 0.178125 -9.88516 1.01559 -0.0087991 8.89157 -0.109411 0.593141 -1.55798 1.39529
10.8719 83.3228 2.18379 -65.0844 87.5554 -56.4512 1.3758 8.34329 -0.813503 -0.832423 -2.12317 -0.159539 -2.30821 16.9733 -1.30404 4.23319 -19.0411 -1.76237 -0.0 0.0 0.0 -0.0 0.0 0.0 -6.05555e-14 1.79526e-12 4.61802e-14 36.2605 21.543 22.4366 17.9678 4.73939 -84.5317 -0.0518918 13.6749 1.91801 -5.81889e-10 8.74704e-11 -1.36762e-10 -1.00973e-09 1.54013e-10 -2.23853e-10 -5.81886e-10 8.74702e-11 -1.36769e-10 7.73091 5.47488 0.417314 -5.81887e-10 8.74716e-11 -1.36764e-10 2.90554 0.965183 0.102902 -5.81883e-10 8.74721e-11 -1.36765e-10 10.2786 0.731801 0.0259123 -5.81892e-10 8.74764e-11 -1.36757e-10 2.22167 -0.733487 -0.20892 -6.05642e-14 1.79526e-12 4.58727e-14 -31.8025 26.5219 -31.3497 -16.8553 6.77769 82.767 0.0478131 -13.139 1.84309 -2.85569e-10 4.67678e-10 -5.48543e-10 -4.83181e-10 8.107e-10 -9.55353e-10 -2.85575e-10 4.67679e-10 -5.48534e-10 -7.73091 5.47488 -0.417314 -2.85569e-10 4.67678e-10 -5.48539e-10 -2.90554 0.965183 -0.102902 -2.85578e-10 4.67678e-10 -5.48539e-10 -10.2786 0.731801 -0.0259123 -2.85563e-10 4.67681e-10 -5.48544e-10 -2.22167 -0.733487 0.20892 -2.03217e-16 0.0 -3.88251e-19 0.525959 -10.659 1.13472 -0.0142651 5.38938 0.0442385 -0.8119 -1.17249 -3.82548 2.03217e-16 0.0 3.88251e-19 1.88751 -14.4029 2.00536 -0.00456847 13.4015 -0.194896 0.834836 -4.24681 2.96163
11.0565 83.3939 2.17564 -66.1411 87.6052 -57.7251 2.58097 12.1319 -1.19832 -1.07318 -3.10183 -0.213025 -3.09712 24.7252 -1.99823 5.72265 -27.7593 -2.74258 -0.0 0.0 0.0 -0.0 0.0 0.0 -9.09336e-14 2.62831e-12 6.85885e-14 46.7915 28.6338 35.1585 22.6408 -26.1912 -106.615 -0.399833 19.9171 2.88905 -8.54737e-10 1.26745e-10 -2.02275e-10 -1.48317e-09 2.23199e-10 -3.31385e-10 -8.54736e-10 1.26745e-10 -2.02284e-10 7.73091 5.47488 0.417314 -8.54735e-10 1.26747e-10 -2.0228e-10 2.90554 0.965183 0.102902 -8.54733e-10 1.26747e-10 -2.02278e-10 10.2786 0.731801 0.0259123 -8.5474e-10 1.26752e-10 -2.02272e-10 2.22167 -0.733487 -0.20892 -9.09053e-14 2.62831e-12 6.82798e-14 -36.333 31.9974 -49.9473 -22.4979 -23.7456 102.83 0.367916 -19.1443 2.77006 -4.34625e-10 6.82882e-10 -7.82225e-10 -7.36421e-10 1.18387e-09 -1.36268e-09 -4.34631e-10 6.82883e-10 -7.82217e-10 -7.73091 5.47488 -0.417314 -4.34624e-10 6.82882e-10 -7.82221e-10 -2.90554 0.965183 -0.102902 -4.34635e-10 6.82883e-10 -7.82219e-10 -10.2786 0.731801 -0.0259123 -4.34619e-10 6.82885e-10 -7.82222e-10 -2.22167 -0.733487 0.20892 -2.03217e-16 0.0 -3.88251e-19 1.03695 -14.6299 1.67491 -0.0270455 8.8008 0.0999922 -1.20132 -3.53356 -5.644 2.03217e-16 0.0 3.88251e-19 3.55156 -18.392 2.92193 0.01115 17.4158 -0.274642 1.1748 -6.64038 4.3678
